<?xml version="1.0" standalone="no"?><!DOCTYPE svg PUBLIC "-//W3C//DTD SVG 1.1//EN" "http://www.w3.org/Graphics/SVG/1.1/DTD/svg11.dtd"><svg t="1752804010931" class="icon" viewBox="0 0 1673 1024" version="1.1" xmlns="http://www.w3.org/2000/svg" p-id="7083" xmlns:xlink="http://www.w3.org/1999/xlink" width="104.5625" height="64"><path d="M816.412607 44.744986a88.756447 88.756447 0 0 0-126.166189 0L338.888252 395.369628 170.911175 228.126074a90.95702 90.95702 0 0 0-126.166189 0 88.022923 88.022923 0 0 0-26.406877 63.083095 89.489971 89.489971 0 0 0 26.406877 63.083095l225.191977 225.925501a83.621777 83.621777 0 0 0 36.676218 20.538682 85.088825 85.088825 0 0 0 35.942693 7.335244 88.756447 88.756447 0 0 0 63.083094-25.673353l410.773639-414.441261a88.756447 88.756447 0 0 0 0-126.166189z" fill="#39B54A" p-id="7084"></path><path d="M342.555874 626.429799a111.495702 111.495702 0 0 1-43.277937-8.802292 93.157593 93.157593 0 0 1-41.810888-24.939828L31.541547 367.495702a110.028653 110.028653 0 0 1-31.541547-73.352436 108.561605 108.561605 0 0 1 31.541547-73.352435 114.429799 114.429799 0 0 1 152.573066 0l154.773639 148.905444L677.04298 31.541547a108.561605 108.561605 0 0 1 152.573066 0 107.82808 107.82808 0 0 1 0 152.573066l-410.773639 411.507164a108.561605 108.561605 0 0 1-76.286533 30.808022z m-234.727794-405.638968a73.352436 73.352436 0 0 0-73.352435 73.352435 67.484241 67.484241 0 0 0 21.272206 49.879657l229.593123 222.991404a63.816619 63.816619 0 0 0 27.140401 15.404011 83.621777 83.621777 0 0 0 32.275072 7.335244 68.951289 68.951289 0 0 0 49.879656-20.538682l411.507163-410.773639a73.352436 73.352436 0 0 0 20.538682-50.613181A73.352436 73.352436 0 0 0 705.65043 57.2149l-366.762178 366.762177-180.446991-182.647564a73.352436 73.352436 0 0 0-50.613181-20.538682z" fill="#006837" p-id="7085"></path></svg>