<?xml version="1.0" standalone="no"?><!DOCTYPE svg PUBLIC "-//W3C//DTD SVG 1.1//EN" "http://www.w3.org/Graphics/SVG/1.1/DTD/svg11.dtd"><svg t="1758090609051" class="icon" viewBox="0 0 1024 1024" version="1.1" xmlns="http://www.w3.org/2000/svg" p-id="18817" xmlns:xlink="http://www.w3.org/1999/xlink" width="16" height="16"><path d="M426.624 213.333333c-23.530667 0-42.666667 19.136-42.666667 42.666667v384.469333a21.333333 21.333333 0 0 1-8.469333 17.024c-26.453333 20.010667-38.677333 51.392-32.725333 83.925334 6.122667 33.429333 32.384 60.48 65.344 67.306666 26.325333 5.504 52.010667-0.618667 72.341333-17.173333A85.098667 85.098667 0 0 0 511.957333 725.333333c0-26.688-12.458667-51.413333-34.197333-67.84a21.333333 21.333333 0 0 1-8.469333-17.024V256c0-23.530667-19.136-42.666667-42.666667-42.666667m-0.192 639.957334c-8.96 0-18.005333-0.917333-26.986667-2.773334-49.792-10.325333-89.429333-51.072-98.645333-101.418666a127.722667 127.722667 0 0 1 40.490667-118.656V256c0-47.061333 38.272-85.333333 85.333333-85.333333s85.333333 38.272 85.333333 85.333333v374.421333a126.506667 126.506667 0 0 1 42.666667 94.912c0 38.677333-17.216 74.88-47.253333 99.306667a127.872 127.872 0 0 1-80.938667 28.650667" fill="#1296db" p-id="18818"></path><path d="M490.624 597.333333h-53.333333a10.666667 10.666667 0 0 1 0-21.333333h53.333333a10.666667 10.666667 0 0 1 0 21.333333M490.624 533.333333h-53.333333a10.666667 10.666667 0 0 1 0-21.333333h53.333333a10.666667 10.666667 0 0 1 0 21.333333M491.946667 469.333333h-54.656a10.666667 10.666667 0 0 1 0-21.333333h54.677333a10.666667 10.666667 0 0 1 0 21.333333M491.946667 405.333333h-54.656a10.666667 10.666667 0 0 1 0-21.333333h54.677333a10.666667 10.666667 0 0 1 0 21.333333M493.290667 341.333333h-56a10.666667 10.666667 0 0 1 0-21.333333h56a10.666667 10.666667 0 0 1 0 21.333333M493.290667 277.333333h-56a10.666667 10.666667 0 0 1 0-21.333333h56a10.666667 10.666667 0 0 1 0 21.333333M610.474667 251.626667c17.28 32.64 19.413333 71.893333 3.797333 105.813333-4.736 10.282667-10.88 19.946667-16.853333 29.226667-10.218667 16-19.84 31.061333-21.290667 47.424-1.322667 15.253333 5.461333 31.317333 17.770667 41.962666 3.456 2.986667 7.381333 5.546667 11.648 7.722667-8.938667-19.413333-9.813333-41.984-1.216-61.482667 3.925333-8.981333 9.429333-16.810667 14.741333-24.426666 3.434667-4.906667 6.890667-9.813333 9.770667-14.954667 3.306667-5.845333 10.24-20.650667 3.349333-31.36a10.666667 10.666667 0 0 1 13.226667-15.573333c18.304 7.957333 28.928 26.090667 30.72 52.416 0.725333 11.008-0.469333 21.696-1.642667 32-0.789333 7.04-1.6 14.058667-1.706667 21.098666a58.24 58.24 0 0 0 5.504 26.496c18.645333-22.976 27.562667-57.386667 25.322667-80.96-5.290667-55.722667-39.893333-104.981333-93.141333-135.402666M631.317333 512l-0.512-0.021333c-18.816-0.896-37.333333-8.128-50.88-19.84-17.621333-15.232-27.008-37.632-25.045333-59.882667 1.877333-21.589333 13.397333-39.637333 24.554667-57.066667 5.824-9.109333 11.349333-17.706667 15.466666-26.666666 17.728-38.528 6.506667-87.509333-26.666666-116.48a10.666667 10.666667 0 0 1 10.517333-18.133334c82.837333 28.864 138.837333 94.4 146.090667 171.093334 3.008 31.637333-10.197333 80.106667-40.576 107.626666a10.666667 10.666667 0 0 1-14.784-0.448c-11.776-12.010667-18.346667-30.613333-18.026667-51.008 0.128-7.744 0.981333-15.445333 1.834667-23.146666 1.109333-9.813333 2.154667-19.093333 1.536-28.181334a77.994667 77.994667 0 0 0-1.28-10.133333 75.733333 75.733333 0 0 1-6.101334 13.653333c-3.242667 5.76-7.04 11.285333-10.88 16.768-4.949333 7.04-9.6 13.653333-12.714666 20.736-9.130667 20.757333-3.114667 46.464 14.634666 62.570667a10.666667 10.666667 0 0 1-7.168 18.56" fill="#1296db" p-id="18819"></path></svg>