<?xml version="1.0" standalone="no"?><!DOCTYPE svg PUBLIC "-//W3C//DTD SVG 1.1//EN" "http://www.w3.org/Graphics/SVG/1.1/DTD/svg11.dtd"><svg t="1758090774791" class="icon" viewBox="0 0 1024 1024" version="1.1" xmlns="http://www.w3.org/2000/svg" p-id="21067" xmlns:xlink="http://www.w3.org/1999/xlink" width="16" height="16"><path d="M713.796267 579.1744H681.984v-57.821867a15.223467 15.223467 0 0 0-15.735467-14.677333h-136.055466v-44.782933h31.7952c14.6432 1.143467 29.149867-3.413333 40.4992-12.714667a48.810667 48.810667 0 0 0 13.4144-37.768533v-87.688534a48.810667 48.810667 0 0 0-13.482667-37.768533 56.849067 56.849067 0 0 0-40.4992-12.714667h-93.934933a56.849067 56.849067 0 0 0-40.448 12.714667 48.7424 48.7424 0 0 0-13.6192 37.768533v87.688534a48.7424 48.7424 0 0 0 13.602133 37.768533 56.849067 56.849067 0 0 0 40.4992 12.714667h30.7712v44.834133h-125.0816a15.223467 15.223467 0 0 0-15.701333 14.660267v57.787733h-30.754134a56.814933 56.814933 0 0 0-40.448 12.714667 48.810667 48.810667 0 0 0-13.602133 37.768533v87.722667a48.708267 48.708267 0 0 0 13.602133 37.717333 56.814933 56.814933 0 0 0 40.448 12.731733h93.986134c14.609067 1.1264 29.115733-3.413333 40.448-12.714666a48.7424 48.7424 0 0 0 13.602133-37.768534v-87.688533a48.861867 48.861867 0 0 0-13.602133-37.768533 56.8832 56.8832 0 0 0-40.448-12.714667H389.461333V536.064h261.085867v43.127467h-30.72a56.917333 56.917333 0 0 0-40.4992 12.714666 48.896 48.896 0 0 0-13.568 37.768534v87.722666a48.7424 48.7424 0 0 0 13.602133 37.768534c11.349333 9.284267 25.838933 13.824 40.448 12.680533h93.986134c14.609067 1.1264 29.115733-3.413333 40.448-12.714667a48.708267 48.708267 0 0 0 13.602133-37.768533v-87.688533a48.810667 48.810667 0 0 0-13.602133-37.768534 56.8832 56.8832 0 0 0-40.448-12.714666z" fill="#1296db" p-id="21068"></path></svg>