<?xml version="1.0" standalone="no"?><!DOCTYPE svg PUBLIC "-//W3C//DTD SVG 1.1//EN" "http://www.w3.org/Graphics/SVG/1.1/DTD/svg11.dtd"><svg t="1758090676632" class="icon" viewBox="0 0 1024 1024" version="1.1" xmlns="http://www.w3.org/2000/svg" p-id="19870" xmlns:xlink="http://www.w3.org/1999/xlink" width="16" height="16"><path d="M512 0l435.2 147.2c6.4 0 6.4 6.4 6.4 12.8v396.8c0 70.4-12.8 153.6-115.2 262.4-70.4 76.8-249.6 172.8-320 204.8h-12.8c-6.4-6.4-19.2-6.4-25.6-12.8l-32-12.8c-83.2-38.4-204.8-108.8-268.8-179.2C83.2 716.8 64 633.6 64 563.2V160c0-6.4 6.4-12.8 6.4-12.8L505.6 0H512z m0 64L128 198.4v358.4c0 70.4 19.2 128 89.6 204.8l12.8 12.8c44.8 57.6 160 121.6 262.4 172.8l19.2 6.4 12.8-6.4c89.6-44.8 204.8-108.8 256-160l12.8-12.8C870.4 697.6 896 640 896 569.6V198.4L512 64z m6.4 140.8c12.8 6.4 19.2 12.8 25.6 25.6l44.8 121.6c6.4 12.8 19.2 25.6 32 25.6h128c19.2 0 38.4 19.2 38.4 38.4 0 12.8-6.4 19.2-12.8 25.6l-102.4 76.8c-12.8 6.4-19.2 25.6-12.8 38.4l38.4 121.6c6.4 19.2-6.4 38.4-25.6 44.8-12.8 6.4-19.2 0-32-6.4L531.2 640c-12.8-6.4-32-6.4-38.4 0L384 716.8c-19.2 12.8-38.4 6.4-51.2-6.4-6.4-6.4-12.8-12.8-6.4-25.6l38.4-121.6c6.4-12.8 0-32-12.8-38.4L249.6 441.6c-19.2-12.8-19.2-32-12.8-51.2 6.4-6.4 19.2-12.8 32-12.8h128c12.8 0 25.6-12.8 32-25.6l44.8-121.6c6.4-19.2 25.6-32 44.8-25.6z m-12.8 121.6l-12.8 44.8c-12.8 38.4-44.8 64-83.2 64h-57.6l38.4 32c32 25.6 44.8 64 38.4 102.4V576l-19.2 51.2 38.4-32c32-19.2 76.8-19.2 108.8 0l6.4 6.4 38.4 25.6-12.8-44.8c-12.8-38.4 0-76.8 32-108.8l6.4-6.4 38.4-32h-51.2c-38.4 6.4-70.4-19.2-89.6-51.2v-12.8l-19.2-44.8z" fill="#1296db" p-id="19871"></path></svg>