<?xml version="1.0" standalone="no"?><!DOCTYPE svg PUBLIC "-//W3C//DTD SVG 1.1//EN" "http://www.w3.org/Graphics/SVG/1.1/DTD/svg11.dtd"><svg t="1758081112163" class="icon" viewBox="0 0 1024 1024" version="1.1" xmlns="http://www.w3.org/2000/svg" p-id="17519" xmlns:xlink="http://www.w3.org/1999/xlink" width="16" height="16"><path d="M403.491366 244.905297h66.83012q33.41506 0 33.396998 33.396998t-33.396998 33.378935h-66.83012q-33.396998 0-33.396998-33.378935t33.396998-33.396998z m0 0M403.491366 395.146632h66.83012q33.41506 0 33.396998 33.396998t-33.396998 33.378935h-66.83012q-33.396998 0-33.396998-33.378935t33.396998-33.396998z m0 0" p-id="17520" fill="#1296db"></path><path d="M507.114176 23.769848a162.776498 162.776498 0 0 0-157.881643 162.704249V530.8479l-4.714233 3.793061A262.931367 262.931367 0 1 0 774.86815 737.371033v-6.809447A262.515937 262.515937 0 0 0 679.4817 534.640961l-4.732295-3.811123V186.474097a162.776498 162.776498 0 0 0-162.740374-162.776498z m4.894855 75.048419A87.655831 87.655831 0 0 1 599.664862 186.474097v363.465543a37.569365 37.569365 0 0 0 16.653343 31.211472 187.846824 187.846824 0 1 1-208.600286 0 37.569365 37.569365 0 0 0 16.653344-31.211472V186.474097a87.655831 87.655831 0 0 1 87.65583-87.65583z m0 0" p-id="17521" fill="#1296db"></path><path d="M418.085619 681.035048a37.53324 37.53324 0 0 1 37.569365 37.840298v3.377631a70.9483 70.9483 0 0 0 70.876052 67.281675v75.120667h-4.641984a146.050906 146.050906 0 0 1-141.445047-145.996719v-2.817703a37.551303 37.551303 0 0 1 37.460992-34.7336z m0 0" p-id="17522" fill="#1296db"></path></svg>