<?xml version="1.0" standalone="no"?><!DOCTYPE svg PUBLIC "-//W3C//DTD SVG 1.1//EN" "http://www.w3.org/Graphics/SVG/1.1/DTD/svg11.dtd"><svg t="1758081034069" class="icon" viewBox="0 0 1024 1024" version="1.1" xmlns="http://www.w3.org/2000/svg" p-id="16398" xmlns:xlink="http://www.w3.org/1999/xlink" width="16" height="16"><path d="M827.076923 260.529231l-6.301538 38.163692a169.590154 169.590154 0 0 1-63.015385 106.811077q-68.253538-69.632-138.436923-139.264a164.155077 164.155077 0 0 1 122.604308-66.953846 694.114462 694.114462 0 0 1 72.704-2.56c3.938462 0 8.231385 4.450462 12.642461 7.010461z m-240.246154 36.864l139.697231 140.524307c-13.272615 12.721231-27.805538 26.702769-41.078154 40.684308-38.557538 38.793846-77.745231 77.587692-116.302769 117.011692a44.977231 44.977231 0 0 1-55.611077 16.541539 267.815385 267.815385 0 0 1 6.971077 49.585231 104.093538 104.093538 0 0 1-32.886154 69.316923c-29.696 32.413538-61.321846 63.015385-91.648 93.459692a20.283077 20.283077 0 0 1-4.411077 2.56c-5.041231-23.630769-9.491692-46.434462-13.902769-69.316923-3.938462-19.062154-6.971077-38.163692-11.382154-57.225846a17.92 17.92 0 0 1 5.671385-19.692308c25.284923-24.812308 49.939692-50.215385 75.854769-75.657846-10.121846-9.531077-19.692308-17.801846-30.956308-27.963077-12.642462 13.351385-27.175385 28.632615-41.708307 43.323077l-34.146462 34.343385a12.091077 12.091077 0 0 1-10.752 3.938461c-44.228923-8.270769-87.867077-17.801846-133.356308-26.702769a56.674462 56.674462 0 0 1 8.231385-8.900923c34.146462-32.413538 66.953846-66.126769 101.769846-97.910154a89.088 89.088 0 0 1 79.005539-22.252308c8.861538 1.890462 17.683692 6.340923 27.805538 9.531077a46.119385 46.119385 0 0 1 15.163077-58.486154c49.939692-48.955077 99.249231-99.84 149.149538-150.055384a18.825846 18.825846 0 0 0 8.822154-6.656z" p-id="16399" fill="#1296db"></path></svg>