<?xml version="1.0" standalone="no"?><!DOCTYPE svg PUBLIC "-//W3C//DTD SVG 1.1//EN" "http://www.w3.org/Graphics/SVG/1.1/DTD/svg11.dtd"><svg t="1758080984897" class="icon" viewBox="0 0 1024 1024" version="1.1" xmlns="http://www.w3.org/2000/svg" p-id="15269" xmlns:xlink="http://www.w3.org/1999/xlink" width="16" height="16"><path d="M620.274819 353.102257l-47.294995-185.91605L287.417892 272.01598l332.792929 81.086277z" fill="#1296db" p-id="15270"></path><path d="M839.854153 548.874096l-97.597926-50.558925-102.909813 38.59118-5.759878 95.357973 97.597926 50.558926 102.973812-38.527181 5.759878-95.357974z" fill="#1296db" p-id="15271"></path><path d="M824.494479 637.19222l-82.302251 30.719347 4.031915-67.454567 82.558245-35.839238-4.287909 72.574458z m-98.301911-37.887195l-4.031914 67.454566-78.078341-40.383141 4.287909-72.574458 77.822346 45.439034z m90.238083-51.198912L737.264333 582.409384l-74.494417-43.647073 78.974322-29.439374 74.750411 38.655178z m-193.275893 90.110085l5.823876 3.007936 101.565842 52.478885 4.22391-1.471969 102.909813-38.527181 6.14387-2.239953 6.463862-108.477694-5.759877-3.007937-97.597926-50.558925-4.031915-1.983958-107.069724 40.063149-6.14387 2.239952-6.463862 108.477695z" fill="#1296db" p-id="15272"></path><path d="M477.045863 2.325711a32.895301 32.895301 0 0 1 27.967405 1.727963l419.191093 231.355084 3.839918 2.431948c8.191826 6.143869 13.18372 15.871663 13.18372 26.36744v494.069501l-65.662605-26.239443V323.598884L521.972908 546.570145v388.855737l205.051643-113.149595 17.151635 65.534607-239.162918 132.029194a32.895301 32.895301 0 0 1-31.743325 0l-419.191092-231.291085a33.023298 33.023298 0 0 1-17.087637-28.799388V264.208146c0-11.967746 6.59186-23.03951 17.087637-28.799388L473.269943 4.053674l3.839918-1.727963zM102.781816 740.486025l353.464489 195.003856V546.634144L102.781816 323.726881v416.695145zM134.397144 266.000107L489.141606 489.611356l354.680463-223.54725L489.141606 70.420264 134.397144 266.000107z" fill="#1296db" p-id="15273"></path><path d="M753.071997 732.2302a15.99966 15.99966 0 0 1 17.279633-3.071935l222.843265 95.037981a15.99966 15.99966 0 0 1-0.319994 29.63137l-93.246018 36.927215-36.991214 93.246019a15.99966 15.99966 0 0 1-29.951364-0.511989l-83.710221-234.235023-0.895981-4.607902a15.99966 15.99966 0 0 1 4.991894-12.415736z m95.357974 200.507739l23.935491-60.158721 1.535968-2.943938a16.063659 16.063659 0 0 1 7.48784-6.143869l63.422653-25.151466-153.40474-65.342611 57.086787 159.804604z" fill="#1296db" p-id="15274"></path></svg>