<?xml version="1.0" standalone="no"?><!DOCTYPE svg PUBLIC "-//W3C//DTD SVG 1.1//EN" "http://www.w3.org/Graphics/SVG/1.1/DTD/svg11.dtd"><svg t="1735239039442" class="icon" viewBox="0 0 1087 1024" version="1.1" xmlns="http://www.w3.org/2000/svg" p-id="8182" xmlns:xlink="http://www.w3.org/1999/xlink" width="33.96875" height="32"><path d="M69.647226 362.596026l132.218436 406.979189 120.110393 90.567809 96.782059-3.676583 320.408419-101.554256 131.620829 101.359384 164.558515-580.285288-285.812157-238.176797L265.813967 28.148167l-157.543125 92.217725z" fill="#F0F0FF" p-id="8183"></path><path d="M263.254649 83.755953c104.706851 0 189.896195 85.185014 189.896195 189.896196s-85.189345 189.900526-189.896195 189.900525c-104.711181 0-189.900526-85.189345-189.900526-189.900525 0-104.711181 85.189345-189.896195 189.900526-189.896196zM43.040713 273.652149c0 121.422531 98.787075 220.213936 220.213936 220.213936 121.422531 0 220.209606-98.791405 220.209605-220.213936 0-121.426862-98.787075-220.209606-220.209605-220.209606-121.426862 0-220.213936 98.787075-220.213936 220.209606zM822.602031 82.365867c104.70252 0 189.891865 85.185014 189.891864 189.896195s-85.189345 189.900526-189.891864 189.900526c-104.715512 0-189.904856-85.189345-189.904856-189.900526 0-104.711181 85.189345-189.896195 189.904856-189.896195z m-220.218267 189.896195c0 121.422531 98.787075 220.213936 220.218267 220.213936 121.422531 0 220.205275-98.791405 220.205275-220.213936 0-121.426862-98.782744-220.209606-220.205275-220.209606-121.431192 0-220.218267 98.787075-220.218267 220.209606z" fill="#6E6E96" opacity=".2" p-id="8184"></path><path d="M249.050651 247.669225m-205.052901 0a205.0529 205.0529 0 1 0 410.105801 0 205.0529 205.0529 0 1 0-410.105801 0Z" fill="#BAC4C4" p-id="8185"></path><path d="M249.050651 57.77303c104.706851 0 189.896195 85.185014 189.896195 189.896195s-85.185014 189.896195-189.896195 189.896195-189.900526-85.185014-189.900526-189.896195 85.193675-189.896195 189.900526-189.896195zM28.841045 247.669225c0 121.426862 98.787075 220.209606 220.213936 220.209606 121.422531 0 220.209606-98.787075 220.209606-220.209606S370.473182 27.459619 249.050651 27.459619C127.628119 27.459619 28.841045 126.246694 28.841045 247.669225z" fill="#6E6E96" p-id="8186"></path><path d="M837.918964 247.669225m-205.0529 0a205.0529 205.0529 0 1 0 410.105801 0 205.0529 205.0529 0 1 0-410.105801 0Z" fill="#BAC4C4" p-id="8187"></path><path d="M837.918964 57.77303c104.711181 0 189.900526 85.185014 189.900526 189.896195s-85.189345 189.896195-189.900526 189.896195-189.896195-85.185014-189.896195-189.896195 85.185014-189.896195 189.896195-189.896195z m-220.209606 189.896195c0 121.426862 98.787075 220.209606 220.209606 220.209606s220.213936-98.787075 220.213936-220.209606-98.791405-220.209606-220.213936-220.209606-220.209606 98.787075-220.209606 220.209606z" fill="#6E6E96" p-id="8188"></path><path d="M321.976055 735.204138m-140.095592 0a140.095592 140.095592 0 1 0 280.191185 0 140.095592 140.095592 0 1 0-280.191185 0Z" fill="#BAC4C4" p-id="8189"></path><path d="M321.976055 610.265251c68.893721 0 124.938887 56.045166 124.938887 124.943217 0 68.889391-56.045166 124.943217-124.938887 124.943217-68.893721 0-124.938887-56.049496-124.938886-124.943217 0-68.898052 56.045166-124.943217 124.938886-124.943217zM166.723758 735.204138c0 85.609402 69.647226 155.252297 155.252297 155.252297s155.252297-69.642896 155.252298-155.252297c0-85.613732-69.647226-155.260958-155.252298-155.260959S166.723758 649.599066 166.723758 735.204138z" fill="#6E6E96" p-id="8190"></path><path d="M760.121761 866.824966m-113.870161 0a113.870162 113.870162 0 1 0 227.740323 0 113.870162 113.870162 0 1 0-227.740323 0Z" fill="#BAC4C4" p-id="8191"></path><path d="M760.121761 768.11151c54.429894 0 98.713456 44.283562 98.713456 98.713456a98.050892 98.050892 0 0 1-28.914663 69.798793 98.050892 98.050892 0 0 1-69.798793 28.914664c-54.425563 0-98.713456-44.283562-98.713456-98.713457s44.279232-98.713456 98.713456-98.713456z m-129.026867 98.713456c0 71.145575 57.881292 129.026867 129.026867 129.026867 34.466348 0 66.858392-13.428841 91.234705-37.796492 24.367652-24.367652 37.792162-56.764027 37.792162-91.230375 0-71.145575-57.876962-129.026867-129.026867-129.026867-71.145575 0-129.026867 57.881292-129.026867 129.026867zM172.725813 777.98069L37.406749 310.223113l29.118196-8.427128L201.844009 769.557893zM265.818297 28.148167l572.083345-0.692878 0.034644 30.313411-572.083345 0.692877z" fill="#6E6E96" p-id="8192"></path><path d="M353.151233 856.501085l381.56789-116.061388 8.821203 29.001273-381.567891 116.057057zM853.993733 895.189658l162.783014-580.250644 29.178823 8.184621-162.783014 580.254974z" fill="#6E6E96" p-id="8193"></path><path d="M249.050651 247.669225m-138.194509 0a138.194508 138.194508 0 1 0 276.389017 0 138.194508 138.194508 0 1 0-276.389017 0Z" fill="#E4F2ED" p-id="8194"></path><path d="M372.084123 247.669225c0 67.845743-55.19206 123.037803-123.033472 123.037803-67.845743 0-123.037803-55.19639-123.037803-123.037803 0-32.864068 12.79659-63.762094 36.038314-86.999488 23.237394-23.237394 54.135421-36.038315 86.999489-36.038315 67.841413 0 123.033472 55.19639 123.033472 123.037803zM249.050651 94.318012c-84.557093 0-153.351214 68.79412-153.351214 153.351213s68.79412 153.351214 153.351214 153.351214 153.346883-68.79412 153.346883-153.351214S333.607744 94.318012 249.050651 94.318012z" fill="#6E6E96" p-id="8195"></path><path d="M837.918964 247.669225m-138.194508 0a138.194508 138.194508 0 1 0 276.389016 0 138.194508 138.194508 0 1 0-276.389016 0Z" fill="#E4F2ED" p-id="8196"></path><path d="M960.952437 247.669225c0 32.864068-12.792259 63.762094-36.033985 86.999488-23.233064 23.237394-54.139751 36.038315-86.999488 36.038315-32.868398 0-63.766424-12.80092-87.003819-36.038315-23.237394-23.241725-36.033984-54.135421-36.033984-86.999488s12.79659-63.762094 36.033984-86.999488 54.135421-36.038315 87.003819-36.038315c32.859737 0 63.766424 12.80092 86.999488 36.038315 23.241725 23.237394 36.033984 54.135421 36.033985 86.999488zM837.918964 94.318012c-84.552763 0-153.351214 68.79412-153.351213 153.351213 0 40.957748 15.957845 79.473102 44.920144 108.4354 28.962299 28.962299 67.468991 44.915813 108.431069 44.915814s79.473102-15.953515 108.43107-44.915814c28.962299-28.962299 44.915813-67.473321 44.915813-108.4354 0-40.957748-15.953515-79.468771-44.915813-108.4354s-67.468991-44.915813-108.43107-44.915813z" fill="#6E6E96" p-id="8197"></path><path d="M250.167916 248.790821m-37.926407 0a37.926407 37.926407 0 1 0 75.852814 0 37.926407 37.926407 0 1 0-75.852814 0Z" fill="#6E6E96" p-id="8198"></path><path d="M841.279422 248.786491m-37.926407 0a37.926407 37.926407 0 1 0 75.852814 0 37.926407 37.926407 0 1 0-75.852814 0Z" fill="#6E6E96" p-id="8199"></path><path d="M319.802151 736.975307m-71.868766 0a71.868766 71.868766 0 1 0 143.737532 0 71.868766 71.868766 0 1 0-143.737532 0Z" fill="#E4F2ED" p-id="8200"></path><path d="M319.802151 680.263246c31.270448 0 56.712061 25.441612 56.712061 56.720722 0 31.270448-25.441612 56.712061-56.712061 56.712061s-56.712061-25.441612-56.712061-56.712061c0-31.279109 25.441612-56.720722 56.712061-56.720722z m-87.025471 56.720722c0 47.981798 39.039342 87.025471 87.025471 87.025471s87.025471-39.043673 87.025471-87.025471c0-47.990459-39.039342-87.034132-87.025471-87.034132s-87.025471 39.043673-87.025471 87.034132z" fill="#6E6E96" p-id="8201"></path><path d="M758.038797 870.354313m-42.417123 0a42.417122 42.417122 0 1 0 84.834245 0 42.417122 42.417122 0 1 0-84.834245 0Z" fill="#E4F2ED" p-id="8202"></path><path d="M758.038797 843.093896a27.295061 27.295061 0 0 1 27.269078 27.260417 27.29073 27.29073 0 0 1-27.269078 27.260417 27.29073 27.29073 0 0 1-27.260417-27.260417 27.299391 27.299391 0 0 1 27.260417-27.260417z m-57.573828 27.260417c0 31.751132 25.831356 57.573828 57.573828 57.573828 31.751132 0 57.582489-25.822695 57.582488-57.573828 0-31.742471-25.831356-57.573828-57.582488-57.573827-31.742471 0-57.573828 25.831356-57.573828 57.573827z" fill="#6E6E96" p-id="8203"></path><path d="M135.817071 270.55585c0-64.589217 52.359921-116.949138 116.953468-116.949138s116.949138 52.364251 116.949138 116.949138c0 16.62474-3.490373 32.422358-9.743596 46.743279a128.260371 128.260371 0 0 0 19.478531-68.109903c0-71.180218-57.703742-128.888291-128.88396-128.888291-71.184549 0-128.888291 57.708073-128.888292 128.888291 0 34.513983 13.593399 65.836397 35.683215 88.96986a116.377514 116.377514 0 0 1-21.548504-67.603236zM720.437176 276.120526c0-66.468648 53.875592-120.352901 120.348571-120.352901s120.352901 53.884253 120.3529 120.352901c0 5.724904-0.428718 11.345877-1.195214 16.854257a128.5202 128.5202 0 0 0 8.466103-45.9508c0-71.180218-57.708073-128.888291-128.892622-128.888292s-128.888291 57.708073-128.888291 128.888292a128.398946 128.398946 0 0 0 12.935165 56.326647 121.089084 121.089084 0 0 1-3.126612-27.230104z" fill="#6E6E96" opacity=".15" p-id="8204"></path><path d="M247.231846 353.935051v-30.31341c41.767549 0 75.748882-33.977003 75.748882-75.744552h30.313411c0 58.48323-47.579063 106.057963-106.062293 106.057962zM837.360331 354.996021v-30.313411c41.767549 0 75.744552-33.981333 75.744552-75.744552h30.313411c0 58.478899-47.574733 106.057963-106.057963 106.057963z" fill="#FFFFFF" p-id="8205"></path></svg>