<?xml version="1.0" standalone="no"?><!DOCTYPE svg PUBLIC "-//W3C//DTD SVG 1.1//EN" "http://www.w3.org/Graphics/SVG/1.1/DTD/svg11.dtd"><svg t="1752803969371" class="icon" viewBox="0 0 1024 1024" version="1.1" xmlns="http://www.w3.org/2000/svg" p-id="5456" width="64" height="64" xmlns:xlink="http://www.w3.org/1999/xlink"><path d="M525.653333 953.728c24.789333 0 45.525333-8.277333 62.250667-25.002667 16.64-16.64 25.002667-36.949333 25.002667-60.714666 0-24.789333-8.362667-45.525333-25.002667-62.250667a84.437333 84.437333 0 0 0-62.250667-25.002667c-24.746667 0-45.525333 8.362667-62.165333 25.002667-16.682667 16.725333-25.045333 37.461333-25.045333 62.293333 0 23.722667 8.362667 43.989333 25.045333 60.714667 16.64 16.64 37.418667 25.045333 62.165333 25.045333v-0.085333z m72.96-351.658667c-0.981333-15.274667 8.533333-31.488 28.586667-48.597333 22.314667-19.114667 44.714667-38.186667 67.114667-57.173333 24.874667-20.992 41.813333-45.098667 62.762666-71.253334 20.992-26.24 34.944-56.917333 36.864-91.221333a271.914667 271.914667 0 0 0-11.946666-97.493333c-9.557333-32.426667-31.146667-64.298667-53.034667-87.637334a215.68 215.68 0 0 0-81.621333-54.613333c-34.816-13.738667-69.248-23.893333-115.925334-23.893333-58.154667 0-106.496 10.24-145.066666 30.72-38.698667 20.565333-69.888 45.354667-93.696 74.410666-23.850667 29.013333-40.533333 59.050667-50.090667 90.069334-9.472 30.933333-13.738667 56.96-12.842667 77.952 0.981333 24.746667 8.832 42.837333 23.594667 54.314666 14.805333 11.392 30.72 17.365333 47.914667 17.877334 17.194667 0.426667 32.853333-4.352 47.232-14.336 14.208-10.026667 21.376-24.533333 21.376-43.605334 0-11.434667 3.584-25.472 10.752-42.154666 7.125333-16.725333 16.896-32.64 29.312-47.872 12.373333-15.274667 27.392-28.16 45.056-38.656a113.877333 113.877333 0 0 1 59.264-15.701334c42.88 0 77.226667 10.709333 102.954666 32.170667 25.728 21.418667 37.674667 48.341333 35.754667 80.768 0 16.213333-4.778667 31.232-14.293333 45.056a216.618667 216.618667 0 0 1-36.48 39.978667 1010.346667 1010.346667 0 0 1-47.189334 38.656c-16.682667 12.842667-32.384 26.154667-47.189333 39.978666a219.221333 219.221333 0 0 0-37.12 45.056c-9.941333 15.914667-15.616 34.133333-16.469333 52.906667l1.450666 44.330667c0 14.250667 6.656 27.861333 20.010667 40.704 13.312 12.885333 30.933333 19.797333 52.906667 20.778666 21.888-0.981333 39.253333-8.106667 52.181333-21.461333 12.842667-13.354667 18.773333-28.586667 17.834667-45.781333v-24.32z" fill="#d81e06" p-id="5457"></path></svg>