<?xml version="1.0" standalone="no"?><!DOCTYPE svg PUBLIC "-//W3C//DTD SVG 1.1//EN" "http://www.w3.org/Graphics/SVG/1.1/DTD/svg11.dtd"><svg t="1735076902849" class="icon" viewBox="0 0 1024 1024" version="1.1" xmlns="http://www.w3.org/2000/svg" p-id="9070" xmlns:xlink="http://www.w3.org/1999/xlink" width="64" height="64"><path d="M556.088889 609.616162h-88.307071V124.121212c0-13.187879 8.791919-22.109091 22.109091-22.109091h44.088889c13.187879 0 22.109091 8.791919 22.109091 22.109091v485.49495z m0 0" fill="#1890FF" p-id="9071"></path><path d="M714.989899 371.2l30.90101 30.90101c8.791919 8.791919 8.791919 22.109091 0 30.90101l-218.50505 218.505051c-8.791919 8.791919-22.109091 8.791919-30.901011 0L450.19798 605.090909l233.890909-233.890909c8.791919-8.791919 22.109091-8.791919 30.90101 0z m0 0" fill="#1890FF" p-id="9072"></path><path d="M573.80202 605.090909l-46.286868 46.286869c-8.791919 8.791919-22.109091 8.791919-30.901011 0l-218.50505-218.505051c-8.791919-8.791919-8.791919-22.109091 0-30.90101l30.90101-30.90101c8.791919-8.791919 22.109091-8.791919 30.90101 0l233.890909 234.020202z m335.385859-101.494949h-44.088889c-13.187879 0-22.109091 8.791919-22.109091 22.109091v286.90101c0 13.187879-8.791919 22.109091-22.109091 22.109091H202.989899c-13.187879 0-22.109091-8.791919-22.109091-22.109091V525.705051c0-13.187879-8.791919-22.109091-22.109091-22.109091h-43.959596c-13.187879 0-22.109091 8.791919-22.109091 22.109091v375.078787c0 13.187879 8.791919 22.109091 22.109091 22.109091h794.375758c13.187879 0 22.109091-8.791919 22.109091-22.109091V525.705051c-0.129293-13.187879-8.921212-22.109091-22.109091-22.109091z m0 0" fill="#1890FF" p-id="9073"></path><path d="M269.187879 591.90303H136.791919v-88.30707h132.39596c13.187879 0 22.109091 8.791919 22.109091 22.109091v44.088888c0 11.119192-8.791919 22.109091-22.109091 22.109091z m617.890909 0H754.682828c-13.187879 0-22.109091-8.791919-22.109091-22.109091v-44.088888c0-13.187879 8.791919-22.109091 22.109091-22.109091h132.39596v88.30707z m0 0" fill="#1890FF" p-id="9074"></path></svg>