<?xml version="1.0" standalone="no"?><!DOCTYPE svg PUBLIC "-//W3C//DTD SVG 1.1//EN" "http://www.w3.org/Graphics/SVG/1.1/DTD/svg11.dtd"><svg t="1735232964934" class="icon" viewBox="0 0 1024 1024" version="1.1" xmlns="http://www.w3.org/2000/svg" p-id="12392" xmlns:xlink="http://www.w3.org/1999/xlink" width="32" height="32"><path d="M41.791142 470.15244a41.791142 41.791142 0 0 1 41.791142 41.791142 428.359208 428.359208 0 0 0 818.583999 177.089965 41.791142 41.791142 0 0 1 75.746445 35.000082A511.941492 511.941492 0 0 1 0 511.943582 41.791142 41.791142 0 0 1 41.791142 470.15244z m926.718579 179.179522a41.791142 41.791142 0 0 1 41.791143 41.791142v261.194639a41.791142 41.791142 0 1 1-83.582285 0v-219.403496h-219.403497a41.791142 41.791142 0 0 1 0-83.582285h261.194639zM511.941492 0.00209a511.941492 511.941492 0 0 1 511.941493 511.941492 41.791142 41.791142 0 0 1-83.582285 0A428.359208 428.359208 0 0 0 150.970501 281.047521h163.507844a41.791142 41.791142 0 0 1 0 83.582285h-261.194639a41.791142 41.791142 0 0 1-41.791142-41.791143v-261.194639a41.791142 41.791142 0 0 1 83.582285 0H94.03007v153.060059A511.419103 511.419103 0 0 1 511.941492 0.00209z" fill="#1F8CEB" p-id="12393"></path></svg>