<?xml version="1.0" standalone="no"?><!DOCTYPE svg PUBLIC "-//W3C//DTD SVG 1.1//EN" "http://www.w3.org/Graphics/SVG/1.1/DTD/svg11.dtd"><svg t="1735076966775" class="icon" viewBox="0 0 1024 1024" version="1.1" xmlns="http://www.w3.org/2000/svg" p-id="12102" xmlns:xlink="http://www.w3.org/1999/xlink" width="64" height="64"><path d="M533.333333 213.333333v106.666667c0 12.8-8.533333 21.333333-21.333333 21.333333h-128c-12.8 0-21.333333-8.533333-21.333333-21.333333v-106.666667h-85.333334v170.666667c0 23.466667 19.2 42.666667 42.666667 42.666667h256c23.466667 0 42.666667-19.2 42.666667-42.666667v-170.666667h-85.333334z" fill="#297AFF" p-id="12103"></path><path d="M484.266667 320h-27.733334c-4.266667 0-6.4-4.266667-6.4-6.4v-70.4c0-4.266667 4.266667-6.4 6.4-6.4h27.733334c4.266667 0 6.4 4.266667 6.4 6.4v70.4c0 2.133333-4.266667 6.4-6.4 6.4z" fill="#297AFF" p-id="12104"></path><path d="M650.666667 140.8c-6.4-8.533333-17.066667-12.8-29.866667-12.8H213.333333c-46.933333 0-85.333333 38.4-85.333333 85.333333v469.333334c0 46.933333 38.4 85.333333 85.333333 85.333333h469.333334c46.933333 0 85.333333-38.4 85.333333-85.333333V273.066667c0-10.666667-4.266667-21.333333-12.8-29.866667l-104.533333-102.4zM682.666667 640c0 23.466667-19.2 42.666667-42.666667 42.666667H256c-23.466667 0-42.666667-19.2-42.666667-42.666667V256c0-23.466667 19.2-42.666667 42.666667-42.666667h341.333333l78.933334 78.933334c4.266667 4.266667 6.4 8.533333 6.4 14.933333V640z" fill="#297AFF" p-id="12105"></path><path d="M896 339.2c0-46.933333-38.4-83.2-85.333333-83.2h-42.666667v85.333333c23.466667 0 42.666667 19.2 42.666667 42.666667v384c0 23.466667-19.2 42.666667-42.666667 42.666667H341.333333c-23.466667 0-42.666667-19.2-42.666666-42.666667h-85.333334v42.666667c0 46.933333 38.4 85.333333 85.333334 85.333333h512c46.933333 0 85.333333-38.4 85.333333-85.333333V339.2z" fill="#297AFF" p-id="12106"></path></svg>