<?xml version="1.0" standalone="no"?><!DOCTYPE svg PUBLIC "-//W3C//DTD SVG 1.1//EN" "http://www.w3.org/Graphics/SVG/1.1/DTD/svg11.dtd"><svg class="icon" width="16px" height="16.00px" viewBox="0 0 1024 1024" version="1.1" xmlns="http://www.w3.org/2000/svg"><path fill="#000000" d="M880 112c17.496 0 31.713 14.042 32 31.47V880c0 17.496-14.042 31.713-31.47 32H144c-17.496 0-31.713-14.042-32-31.47V144c0-17.496 14.042-31.713 31.47-32H880z m-32 64H176v672h672V176zM544 294v186h186c0 35.346-28.654 64-64 64H544v122c0 34.993-28.084 63.426-62.942 63.991L480 730V544H294c0-35.346 28.654-64 64-64h122V358c0-35.346 28.654-64 64-64z"  fill-opacity=".65" /></svg>